<svg xmlns="http://www.w3.org/2000/svg" style="display: none;">
    <symbol id="blog" viewBox="0 0 64 64">
      <path d="M24 0v6c4.593 0 9.044.898 13.232 2.67 4.048 1.71 7.685 4.164 10.81 7.288s5.576 6.76 7.288 10.81c1.77 4.187 2.67 8.64 2.67 13.23h6C64 17.91 46.09 0 24 0zM24 12v6c5.876 0 11.4 2.288 15.556 6.444S46 34.124 46 40h6c0-15.464-12.536-28-28-28zM30 24l-4 4-14 4L0 58l1.586 1.586 14.55-14.55C16.048 44.706 16 44.358 16 44c0-2.21 1.79-4 4-4s4 1.79 4 4-1.79 4-4 4c-.358 0-.705-.048-1.035-.136l-14.55 14.55L6 64l26-12 4-14 4-4-10-10z"/>
    </symbol>
    <symbol id="camera" viewBox="0 0 64 64">
      <path d="M19 38c0 7.18 5.82 13 13 13s13-5.82 13-13-5.82-13-13-13-13 5.82-13 13zm41-22H46c-1-4-2-8-6-8H24c-4 0-5 4-6 8H4c-2.2 0-4 1.8-4 4v36c0 2.2 1.8 4 4 4h56c2.2 0 4-1.8 4-4V20c0-2.2-1.8-4-4-4zM32 55.75c-9.803 0-17.75-7.947-17.75-17.75S22.197 20.25 32 20.25 49.75 28.197 49.75 38 41.803 55.75 32 55.75zM60 28h-8v-4h8v4z"/>
    </symbol>
    <symbol id="droplet" viewBox="0 0 64 64">
      <path d="M54.04 29.573C49.93 18.108 41.22 7.813 32 0 22.78 7.813 14.07 18.108 9.96 29.573c-2.54 7.09-2.792 14.785.788 21.587C14.863 58.98 23.163 64 32 64s17.138-5.02 21.253-12.84c3.58-6.802 3.328-14.498.787-21.587zm-7.867 17.862C43.435 52.638 37.873 56 32 56c-3.445 0-6.783-1.16-9.507-3.166.828.108 1.665.166 2.507.166 7.34 0 14.292-4.2 17.713-10.703 2.805-5.33 2.56-10.866 1.493-15.27.91 1.758 1.682 3.51 2.303 5.245 1.412 3.94 2.5 9.77-.337 15.163z"/>
    </symbol>
    <symbol id="eyedropper" viewBox="0 0 64 64">
      <path d="M61.657 2.343c-3.124-3.124-8.19-3.124-11.314 0L39.586 13.1 32 5.514 23.515 14l6.652 6.65L.66 50.16c-.503.503-.717 1.185-.644 1.84H0v10c0 1.106.896 2 2 2h10.25c.577 0 1.153-.22 1.592-.658L43.35 33.833 50 40.485 58.487 32 50.9 24.414l10.757-10.757c3.124-3.124 3.124-8.19 0-11.314zM10.817 60H4v-6.818l29.348-29.348 6.818 6.818L10.818 60z"/>
    </symbol>
    <symbol id="headphones" viewBox="0 0 64 64">
      <path d="M18 36h-4v28h4c1.1 0 2-.9 2-2V38c0-1.1-.9-2-2-2zM46 36c-1.1 0-2 .9-2 2v24c0 1.1.9 2 2 2h4V36h-4zM64 32C64 14.327 49.673 0 32 0S0 14.327 0 32c0 3.838.677 7.518 1.916 10.928C.7 45.003 0 47.42 0 50c0 7.053 5.215 12.887 12 13.857V36.143c-1.995.285-3.854.99-5.485 2.024C6.178 36.497 6 34.77 6 33 6 18.64 17.64 7 32 7s26 11.64 26 26c0 1.77-.177 3.498-.514 5.17-1.63-1.035-3.49-1.74-5.486-2.027v27.715c6.784-.97 12-6.805 12-13.857 0-2.58-.7-4.995-1.916-7.07C63.324 39.52 64 35.84 64 32z"/>
    </symbol>
    <symbol id="home" viewBox="0 0 64 64">
      <path d="M64 36.903l-32-24.84-32 24.84V26.776l32-24.84 32 24.84zM56 36v24H40V44H24v16H8V36l24-18z"/>
    </symbol>
    <symbol id="home2" viewBox="0 0 64 64">
      <path d="M32 2L0 34l6 6 6-6v26h16V48h8v12h16V34l6 6 6-6L32 2zm0 26c-2.21 0-4-1.79-4-4s1.79-4 4-4 4 1.79 4 4-1.79 4-4 4z"/>
    </symbol>
    <symbol id="home3" viewBox="0 0 64 64">
      <path d="M64 38L52 26V8h-8v10L32 6 0 38v2h8v20h20V48h8v12h20V40h8z"/>
    </symbol>
    <symbol id="image" viewBox="0 0 64 64">
      <path d="M59.993 8l.007.007v47.986l-.007.007H4.007L4 55.993V8.007L4.007 8h55.986zM60 4H4C1.8 4 0 5.8 0 8v48c0 2.2 1.8 4 4 4h56c2.2 0 4-1.8 4-4V8c0-2.2-1.8-4-4-4zM52 18c0 3.314-2.686 6-6 6s-6-2.686-6-6 2.686-6 6-6 6 2.686 6 6zM56 52H8v-8l14-24 16 20h4l14-12z"/>
    </symbol>
    <symbol id="images" viewBox="0 0 72 64">
      <path d="M68 8h-4V4c0-2.2-1.8-4-4-4H4C1.8 0 0 1.8 0 4v48c0 2.2 1.8 4 4 4h4v4c0 2.2 1.8 4 4 4h56c2.2 0 4-1.8 4-4V12c0-2.2-1.8-4-4-4zM8 12v40H4.007L4 51.993V4.007L4.007 4h55.986l.007.007V8H12c-2.2 0-4 1.8-4 4zm60 47.993l-.007.007H12.007L12 59.993V12.007l.007-.007h55.986l.007.007v47.986zM60 22c0 3.314-2.686 6-6 6s-6-2.686-6-6 2.686-6 6-6 6 2.686 6 6zM64 56H16v-8l14-24 16 20h4l14-12z"/>
    </symbol>
    <symbol id="music" viewBox="0 0 64 64">
      <path d="M60 0h4v46c0 5.523-6.268 10-14 10s-14-4.477-14-10 6.268-10 14-10c3.918 0 7.46 1.15 10 3.002V16l-32 7.11V54c0 5.522-6.268 10-14 10S0 59.52 0 54c0-5.524 6.268-10 14-10 3.918 0 7.46 1.15 10 3V8l36-8z"/>
    </symbol>
    <symbol id="newspaper" viewBox="0 0 64 64">
      <path d="M56 16V8H0v44c0 2.21 1.79 4 4 4h54c3.314 0 6-2.686 6-6V16h-8zm-4 36H4V12h48v40zM8 20h40v4H8zm24 8h16v4H32zm0 8h16v4H32zm0 8h12v4H32zM8 28h20v20H8z"/>
    </symbol>
    <symbol id="office" viewBox="0 0 64 64">
      <path d="M0 64h32V0H0v64zM20 8h8v8h-8V8zm0 16h8v8h-8v-8zm0 16h8v8h-8v-8zM4 8h8v8H4V8zm0 16h8v8H4v-8zm0 16h8v8H4v-8zm32-20h28v4H36zm0 44h8V48h12v16h8V28H36z"/>
    </symbol>
    <symbol id="paint-format" viewBox="0 0 64 64">
      <path d="M64 36V12H52V8c0-2.2-1.8-4-4-4H4C1.8 4 0 5.8 0 8v12c0 2.2 1.8 4 4 4h44c2.2 0 4-1.8 4-4v-4h8v16H24v8h-2c-1.105 0-2 .895-2 2v20c0 1.105.895 2 2 2h8c1.105 0 2-.895 2-2V42c0-1.105-.895-2-2-2h-2v-4h36zM48 12H4V8h44v4z"/>
    </symbol>
    <symbol id="pen" viewBox="0 0 64 64">
      <path d="M63.636 18.243L45.756.363c-.582-.582-1.352-.45-1.71.293L41.65 5.65l16.7 16.7 4.994-2.397c.744-.357.875-1.126.292-1.71zM38.462 8.46L22 9.834c-1.094.135-2.005.37-2.318 1.797v.004C15.216 33.076 0 54 0 54l3.586 3.585 17-17C20.21 39.804 20 38.926 20 38c0-3.315 2.686-6 6-6s6 2.685 6 6-2.686 6-6 6c-.926 0-1.803-.21-2.587-.586l-17 17L10 63.998S30.924 48.78 52.365 44.317h.004c1.427-.314 1.66-1.225 1.796-2.32l1.372-16.46L38.46 8.46z"/>
    </symbol>
    <symbol id="pencil" viewBox="0 0 64 64">
      <path d="M54 0c5.523 0 10 4.477 10 10 0 2.25-.744 4.33-2 6l-4 4L44 6l4-4c1.67-1.256 3.75-2 6-2zM4 46L0 64l18-4 37-37L41 9 4 46zm40.724-23.276l-28 28-3.447-3.447 28-28 3.447 3.447z"/>
    </symbol>
    <symbol id="pencil2" viewBox="0 0 64 64">
      <path d="M24 40l8-4L60 8l-4-4-28 28-4 8zm-5.92 14.194c-1.976-4.17-4.103-6.298-8.274-8.275L16 28.87 24 24 48 0H36L12 24 0 64l40-12 24-24V16L40 40l-4.87 8z"/>
    </symbol>
    <symbol id="quill" viewBox="0 0 64 64">
      <path d="M0 64C8 40 28.938 0 64 0 47.562 13.188 40 44 28 44H16L4 64H0z"/>
    </symbol></svg>